<svg width="234" height="92" viewBox="0 0 234 92" fill="none" xmlns="http://www.w3.org/2000/svg">
<path fill-rule="evenodd" clip-rule="evenodd" d="M62.6557 30.1738L62.9 31.6393C63.0896 32.9846 63.1713 34.3429 63.1442 35.7012C63.1507 38.7046 62.7998 41.6982 62.0988 44.6187C61.1701 48.5797 59.537 52.3415 57.2774 55.7247C54.6639 59.5961 50.9122 63.3722 45.441 66.4522L44.7669 66.8332L44.0903 66.4522C38.6191 63.4064 34.8382 59.5961 32.2564 55.7247C29.9894 52.3441 28.3542 48.5804 27.4301 44.6163C26.7289 41.6949 26.378 38.7005 26.3847 35.6963C26.3726 34.3383 26.4542 32.9811 26.6289 31.6344L26.8439 30.1689C26.8757 30.0547 26.8757 29.9339 26.8439 29.8196C26.8246 29.701 26.7711 29.5907 26.69 29.5021C26.6243 29.4063 26.5415 29.3235 26.4457 29.2578C26.3505 29.2019 26.2476 29.1599 26.1404 29.1333C26.0298 29.0989 25.9114 29.0989 25.8009 29.1333C25.6845 29.152 25.5769 29.2066 25.4931 29.2896C25.3972 29.3551 25.3143 29.4379 25.2489 29.5339C25.1895 29.6431 25.1475 29.761 25.1243 29.8831L24.8801 31.3486C24.6959 32.7905 24.6038 34.2427 24.604 35.6963C24.6019 38.8499 24.9741 41.9926 25.7129 45.0584C26.2011 47.1474 26.8797 49.1873 27.7402 51.1524C28.593 53.1138 29.6214 54.994 30.8129 56.7701C33.5485 60.8638 37.5444 64.8621 43.2696 68.0374L44.3467 68.6382C44.4806 68.7032 44.6278 68.7358 44.7766 68.7335C44.925 68.7324 45.0715 68.7 45.2064 68.6382L46.2836 68.0374C51.999 64.8622 55.995 60.832 58.7403 56.7701C61.1307 53.2044 62.8591 49.2371 63.8427 45.0584C64.5729 41.9915 64.9378 38.8489 64.9296 35.6963C64.9289 34.2322 64.8367 32.7695 64.6536 31.3169L64.4093 29.8514C64.3818 29.7308 64.3408 29.6136 64.2872 29.5021C64.2209 29.4069 64.1382 29.3241 64.0429 29.2579C63.9467 29.1935 63.8434 29.1403 63.7352 29.0991C63.6251 29.0672 63.5082 29.0672 63.3981 29.0991C63.2805 29.1284 63.1666 29.1711 63.0586 29.2261C62.957 29.2845 62.8727 29.3687 62.8144 29.4704C62.7521 29.5702 62.7013 29.6767 62.6629 29.7879L62.6557 30.1738Z" fill="white"/>
<path fill-rule="evenodd" clip-rule="evenodd" d="M31.6719 29.1898L44.7661 25.0644L58.1363 29.2851C58.2466 29.3112 58.3601 29.322 58.4734 29.3168C58.5922 29.3157 58.7086 29.2828 58.8104 29.2216C58.9163 29.1656 59.0108 29.0902 59.0889 28.9993C59.1709 28.9113 59.2245 28.8007 59.2428 28.6818C59.2671 28.5679 59.2769 28.4513 59.2721 28.335C59.2707 28.2122 59.2397 28.0915 59.1817 27.9833C59.1276 27.8767 59.0548 27.7807 58.9667 27.6999C58.8825 27.6172 58.7752 27.5619 58.659 27.5412L45.0103 23.2253C44.8432 23.1593 44.6572 23.1593 44.4901 23.2253L31.1492 27.4459C31.0375 27.4789 30.933 27.5328 30.8414 27.6047C30.7461 27.6786 30.672 27.7763 30.6265 27.888C30.5636 27.9944 30.5315 28.1162 30.5337 28.2397C30.5271 28.3563 30.5378 28.4731 30.5654 28.5865C30.5974 28.7002 30.6486 28.8076 30.7168 28.9041C30.7897 29.0008 30.8853 29.078 30.9953 29.1288C31.0965 29.1912 31.2135 29.2234 31.3324 29.2216C31.4464 29.2255 31.5605 29.2148 31.6719 29.1898Z" fill="white"/>
<path fill-rule="evenodd" clip-rule="evenodd" d="M25.2163 30.4601L43.9674 68.2577C44.0248 68.4071 44.1329 68.5316 44.2727 68.6094C44.5581 68.7754 44.9106 68.7754 45.1959 68.6094C45.3385 68.5255 45.4552 68.4037 45.533 68.2577L56.9688 46.1702L57.0005 46.1385L64.3134 30.4283C64.3618 30.3173 64.3931 30.1995 64.4062 30.0791C64.4158 29.9593 64.3947 29.8391 64.3451 29.7298C64.3141 29.6087 64.2498 29.4987 64.1595 29.4122C64.0896 29.3143 63.9941 29.2374 63.8834 29.19C63.7824 29.1268 63.6655 29.0937 63.5464 29.0947C63.4329 29.0889 63.3193 29.1004 63.2093 29.1289C63.0894 29.159 62.9813 29.2246 62.8991 29.317C62.805 29.393 62.7311 29.4912 62.6842 29.6028L55.3689 45.3129L44.7342 65.8787L26.7844 29.6028C26.7223 29.5007 26.6502 29.405 26.5694 29.317C26.4794 29.2357 26.375 29.172 26.2617 29.1289C26.1586 29.0694 26.035 29.0569 25.9221 29.0947C25.8036 29.098 25.6878 29.1307 25.5851 29.19C25.4851 29.2536 25.3925 29.3282 25.3091 29.4122C25.24 29.5085 25.188 29.6159 25.1552 29.7298C25.1145 29.8415 25.1036 29.9618 25.1234 30.0791C25.1251 30.2115 25.1569 30.3418 25.2163 30.4601Z" fill="white"/>
<path fill-rule="evenodd" clip-rule="evenodd" d="M34.1929 47.2811H55.0665C55.1812 47.2751 55.2945 47.2538 55.4035 47.2176C55.5112 47.1804 55.6066 47.1145 55.6795 47.0271C55.7622 46.947 55.8257 46.8494 55.8652 46.7413C55.9467 46.5156 55.9467 46.2684 55.8652 46.0427C55.8214 45.9369 55.7585 45.84 55.6795 45.757C55.6042 45.6722 55.5095 45.6068 55.4035 45.5664C55.2953 45.5274 55.1815 45.5059 55.0665 45.5029H34.1929C34.0774 45.5087 33.9632 45.53 33.8534 45.5664C33.7458 45.6036 33.6503 45.6695 33.5774 45.757C33.4947 45.837 33.4312 45.9347 33.3917 46.0427C33.3102 46.2684 33.3102 46.5156 33.3917 46.7413C33.4276 46.8511 33.4916 46.9496 33.5774 47.0271C33.6534 47.1111 33.7479 47.1763 33.8534 47.2176C33.9624 47.2569 34.0771 47.2783 34.1929 47.2811Z" fill="white"/>
<path fill-rule="evenodd" clip-rule="evenodd" d="M92.4087 50.5549H78.8236C78.7081 50.5609 78.5939 50.5822 78.484 50.6184C78.3771 50.6569 78.2819 50.7226 78.208 50.809C78.1291 50.8915 78.0669 50.9885 78.0248 51.0948C77.9904 51.2083 77.9699 51.3255 77.9638 51.444V62.7113C77.9699 62.8297 77.9904 62.947 78.0248 63.0606C78.059 63.1706 78.1223 63.2694 78.208 63.3464C78.2875 63.4263 78.3811 63.4909 78.484 63.5369C78.5931 63.5759 78.7077 63.5974 78.8236 63.6004H92.4087V65.5055H78.8236C78.6476 65.5011 78.4725 65.479 78.3009 65.4396C78.1223 65.4021 77.9474 65.349 77.7782 65.2808C77.6129 65.2249 77.4577 65.1424 77.319 65.0366C77.1766 64.9306 77.0427 64.8139 76.9184 64.6873C76.6651 64.4348 76.4664 64.133 76.3346 63.8006C76.2646 63.6266 76.213 63.4457 76.1807 63.2609C76.1459 63.0829 76.1255 62.9023 76.1197 62.7211V51.4856C76.1237 51.3042 76.1441 51.1235 76.1807 50.9458C76.2173 50.762 76.2687 50.5815 76.3346 50.406C76.3888 50.2309 76.4713 50.0659 76.5789 49.9175C76.6733 49.7663 76.7866 49.6276 76.9159 49.5047C77.0415 49.3803 77.1753 49.2644 77.3165 49.1579C77.459 49.0581 77.6133 48.9761 77.7757 48.9137C77.9438 48.8423 78.119 48.789 78.2984 48.7549C78.4704 48.7181 78.6453 48.6968 78.8211 48.6914H92.4063V50.5624L92.4087 50.5549Z" fill="white"/>
<path fill-rule="evenodd" clip-rule="evenodd" d="M117.892 48.6523V50.555H104.827V56.141H115.33V58.0779H104.827V63.6639H117.892V65.5691H102.993V48.6523H117.892Z" fill="white"/>
<path d="M144.816 51.5076V56.4586C144.812 56.64 144.791 56.8206 144.755 56.9983C144.718 57.1822 144.665 57.3627 144.599 57.5381C144.544 57.713 144.461 57.8779 144.354 58.0266C144.251 58.1705 144.138 58.3075 144.017 58.4369C143.891 58.5625 143.757 58.6799 143.617 58.7887C143.47 58.883 143.316 58.9647 143.155 59.0329C142.987 59.1055 142.812 59.1595 142.632 59.1941C142.46 59.2291 142.285 59.2495 142.11 59.2552H139.621L144.75 65.5397H142.307L137.205 59.2552H131.228C130.929 59.2547 130.63 59.2228 130.337 59.1599V65.5397H128.493V48.6865H142.11C142.286 48.6888 142.461 48.7101 142.632 48.75C142.81 48.7882 142.985 48.8405 143.155 48.9064C143.318 48.9736 143.473 49.0597 143.617 49.1628C143.903 49.372 144.151 49.629 144.349 49.9224C144.444 50.0784 144.526 50.2417 144.594 50.4109C144.664 50.5849 144.717 50.7658 144.75 50.9507C144.786 51.1344 144.808 51.3206 144.816 51.5076ZM131.199 57.3476H142.11C142.225 57.3419 142.339 57.3205 142.449 57.2841C142.562 57.2589 142.661 57.1905 142.725 57.0936C142.808 57.014 142.871 56.9161 142.908 56.8078C142.948 56.6954 142.969 56.5776 142.972 56.4585V51.5076C142.977 51.2721 142.889 51.0442 142.728 50.8725C142.578 50.6865 142.351 50.5808 142.112 50.5868H131.199C131.083 50.5898 130.969 50.6112 130.86 50.6503C130.752 50.6881 130.657 50.7539 130.584 50.8408C130.505 50.9233 130.442 51.0204 130.4 51.1266C130.364 51.2397 130.343 51.3571 130.337 51.4759V56.4268C130.33 56.6696 130.432 56.9027 130.615 57.0618C130.747 57.2523 130.968 57.3605 131.199 57.3476Z" fill="white"/>
<path fill-rule="evenodd" clip-rule="evenodd" d="M154.592 48.6523H170.913V50.555H163.691V65.5349H161.846V50.555H154.592V48.6523ZM180.839 65.5349V48.6523H182.686V65.5349H180.839ZM207.218 48.6523H209.585L202.756 57.0936L209.612 65.5349H207.213L201.129 58.0462H195.873V65.5349H194.026V48.6523H195.902V56.141H201.158L207.218 48.6523Z" fill="white"/>
<path d="M207.868 27.6194C205.063 27.6194 202.565 26.3126 200.944 24.2764C199.323 26.3126 196.825 27.6194 194.02 27.6194C193.829 27.6194 193.64 27.6112 193.452 27.5993C193.871 37.0495 200.822 39.3221 200.944 39.2993C201.066 39.3221 208.016 37.0495 208.436 27.5993C208.248 27.6112 208.059 27.6194 207.868 27.6194Z" fill="#44C7EF"/>
<path d="M199.905 35.2627L196.836 32.1945L198.123 30.9085L199.905 32.6905L204.112 28.4834L205.398 29.7694L199.905 35.2627Z" fill="white"/>
<path d="M87.1007 37.5548L86.4193 35.5661H82.5115L81.8301 37.5548H80.2309L83.8605 27.6533H85.0704L88.6999 37.5548H87.1007ZM84.5002 29.8922L82.9565 34.2868H86.0022L84.5002 29.8922Z" fill="white"/>
<path d="M96.2792 37.6382C94.2627 37.6382 92.7328 36.2615 92.7328 34.2172V27.6533H94.2349V34.1477C94.2349 35.4688 95.0412 36.2893 96.2792 36.2893C97.5171 36.2893 98.3371 35.4688 98.3371 34.1477V27.6533H99.8392V34.2172C99.8392 36.2615 98.2955 37.6382 96.2792 37.6382Z" fill="white"/>
<path d="M111.088 36.6231C110.463 37.2489 109.559 37.5548 108.53 37.5548H105.053V27.6533H108.53C109.559 27.6533 110.463 27.9592 111.088 28.585C112.159 29.6558 112.09 31.1021 112.09 32.5346C112.09 33.967 112.159 35.5523 111.088 36.6231ZM110.059 29.6697C109.642 29.2109 109.086 29.0022 108.377 29.0022H106.555V36.2059H108.377C109.086 36.2059 109.642 35.9973 110.059 35.5384C110.574 34.9682 110.588 33.8974 110.588 32.5346C110.588 31.1719 110.574 30.24 110.059 29.6697Z" fill="white"/>
<path d="M117.094 37.5548V27.6533H118.596V37.5548H117.094Z" fill="white"/>
<path d="M127.316 29.0022V37.5548H125.814V29.0022H123.088V27.6533H130.041V29.0022H127.316Z" fill="white"/>
<path d="M134.534 37.5548V27.6533H140.861V29.0022H136.036V31.8947H140.152V33.2298H136.036V36.2059H140.861V37.5548H134.534Z" fill="white"/>
<path d="M151.735 36.6231C151.109 37.2489 150.205 37.5548 149.176 37.5548H145.7V27.6533H149.176C150.205 27.6533 151.109 27.9592 151.735 28.585C152.806 29.6558 152.736 31.1021 152.736 32.5346C152.736 33.967 152.806 35.5523 151.735 36.6231ZM150.706 29.6697C150.289 29.2109 149.732 29.0022 149.023 29.0022H147.201V36.2059H149.023C149.732 36.2059 150.289 35.9973 150.706 35.5384C151.221 34.9682 151.235 33.8974 151.235 32.5346C151.235 31.1719 151.22 30.24 150.706 29.6697Z" fill="white"/>
<path d="M167.865 37.5548H163.86V27.6533H167.712C169.547 27.6533 170.702 28.6963 170.702 30.3651C170.702 31.4359 170.034 32.2008 169.367 32.465C170.132 32.7709 170.855 33.508 170.855 34.7596C170.855 36.5814 169.617 37.5548 167.865 37.5548ZM167.587 29.0022H165.362V31.8392H167.587C168.546 31.8392 169.2 31.3385 169.2 30.4208C169.2 29.503 168.546 29.0022 167.587 29.0022ZM167.726 33.1881H165.362V36.2059H167.726C168.769 36.2059 169.353 35.5661 169.353 34.6901C169.353 33.8141 168.769 33.1881 167.726 33.1881Z" fill="white"/>
<path d="M179.101 33.4802V37.5548H177.599V33.4802L174.637 27.6533H176.278L178.35 32.006L180.422 27.6533H182.063L179.101 33.4802Z" fill="white"/>
</svg>
