<svg width="147" height="41" viewBox="0 0 147 41" fill="none" xmlns="http://www.w3.org/2000/svg">
<path d="M147 0.853516H0V40.9282H147V0.853516Z" fill="black"/>
<path d="M60.5975 24.6065C60.0115 19.2305 57.1902 15.3969 52.3591 13.138C46.0886 10.1988 35.8978 12.5013 33.3237 22.7068C32.7206 25.0935 32.7019 27.5192 33.5382 29.8873C33.6346 30.2089 33.7107 30.5398 33.832 30.8504C37.1165 39.2639 47.6399 42.261 55.3265 37.7187C56.9679 36.7477 57.526 34.6685 56.7254 32.953C55.813 31.008 53.6166 30.2791 51.5959 31.2921C50.2342 31.9742 48.8337 32.4707 47.2948 32.416C44.7689 32.327 42.7574 31.2812 41.1921 29.0771H42.0984C46.5544 29.0771 51.0057 29.0771 55.4524 29.0771C56.0214 29.0808 56.5894 29.0285 57.1483 28.9211C59.0307 28.5542 60.2198 27.3304 60.4685 25.5212C60.5873 25.232 60.6316 24.9175 60.5975 24.6065ZM41.559 22.0809C43.3124 18.4657 48.3984 17.7851 51.1078 20.8086C51.4779 21.2076 51.7836 21.6621 52.014 22.1557C52.2254 22.6241 52.2441 22.8941 51.5679 22.8785C49.9389 22.8379 48.3036 22.8661 46.6792 22.8661H42.016C41.2714 22.8645 41.2217 22.7786 41.559 22.0809Z" fill="#F200AE"/>
<path d="M111.118 32.4716C109.371 30.2279 107.536 28.055 105.614 25.9529C105.472 25.5689 105.797 25.3816 105.979 25.1615C107.593 23.2072 109.216 21.2607 110.849 19.3219C111.313 18.7972 111.644 18.167 111.812 17.4855C111.98 16.8041 111.981 16.0919 111.814 15.4102C111.435 13.7134 110.327 12.627 108.667 12.2258C107.045 11.8324 105.572 12.2258 104.448 13.5245C103.091 15.0854 101.778 16.6839 100.447 18.2683C99.8254 19.0129 99.8254 19.0082 99.2394 18.287C97.9616 16.7261 96.6917 15.1651 95.3875 13.6166C94.7924 12.924 93.9973 12.4347 93.1126 12.2165C92.228 11.9983 91.2976 12.0621 90.4507 12.399C89.6659 12.7067 88.9938 13.2485 88.5252 13.9516C88.0566 14.6547 87.8139 15.4853 87.8299 16.3312C87.6434 17.4738 88.1004 18.4072 88.7968 19.2501C90.3792 21.1655 91.946 23.0917 93.5766 24.9633C94.1238 25.5876 94.0663 25.9826 93.544 26.5774C91.9554 28.3802 90.418 30.2331 88.8807 32.0813C88.0771 33.0475 87.5626 34.1496 87.7647 35.4374C88.06 37.3215 89.0424 38.7357 90.9248 39.2789C92.8507 39.8362 94.4129 39.1229 95.6549 37.6024C96.8968 36.0821 98.1419 34.621 99.3373 33.1021C99.7181 32.6229 99.9342 32.6136 100.321 33.0912C101.622 34.7006 102.953 36.2866 104.293 37.8631C105.807 39.6457 108.516 39.9314 110.291 38.5234C112.124 37.0592 112.557 34.3166 111.118 32.4716Z" fill="#F200AE"/>
<path d="M144.228 12.3592C143.957 12.2075 143.654 12.1214 143.344 12.1079C141.488 11.9736 139.675 12.1688 137.953 12.8884C137.403 13.121 137.002 13.1022 136.467 12.7791C133.966 11.2728 130.526 12.9477 130.405 15.7855C130.294 18.3955 130.395 21.0164 130.405 23.6326C130.923 23.4244 131.434 23.1954 131.937 22.9457C131.437 23.1954 130.926 23.4244 130.405 23.6326C130.392 27.4366 130.372 31.2406 130.37 35.0447C130.37 38.3369 133.649 40.3879 136.598 38.9363C138.102 38.1963 138.9 36.9367 138.92 35.2789C138.965 31.6028 138.94 27.9283 138.952 24.2522C138.952 22.4618 139.967 21.2114 141.713 20.8259C142.092 20.7502 142.476 20.7017 142.862 20.6808C144.928 20.5247 146.692 18.9247 146.958 16.9609C147.236 14.9176 146.12 13.032 144.228 12.3592Z" fill="#F200AE"/>
<path d="M71.0895 30.9691C71.1277 30.7943 71.1531 30.6169 71.1657 30.4383C71.1657 22.8417 71.1657 15.2486 71.1657 7.6592C71.1733 7.08086 71.0661 6.50678 70.8503 5.9705C70.6345 5.43423 70.3144 4.94651 69.9088 4.53583C69.5032 4.12517 69.0202 3.79978 68.488 3.57868C67.9558 3.35758 67.385 3.2452 66.809 3.2481C66.233 3.251 65.6634 3.36913 65.1334 3.59559C64.6034 3.82204 64.1237 4.15229 63.7222 4.56703C63.3207 4.98176 63.0056 5.47269 62.7952 6.01111C62.5847 6.54954 62.4833 7.12467 62.4967 7.70292C62.4858 10.138 62.4967 12.5746 62.5076 15.0098C62.5148 18.9226 62.5236 22.8355 62.534 26.7483C62.534 29.6673 62.4671 32.5878 62.5247 35.5069C62.5651 37.625 64.362 39.2657 66.6641 39.4561C68.5993 39.6121 70.7164 38.0653 71.0398 36.1422C71.3242 34.4298 71.2216 32.6939 71.0895 30.9691Z" fill="#F200AE"/>
<path d="M125.539 25.3468C125.55 22.3404 125.567 19.3355 125.57 16.3307C125.57 13.8659 123.837 12.0286 121.409 11.9022C119.137 11.782 117.017 13.5787 116.95 15.9513C116.849 19.5416 116.95 23.1521 116.95 26.7516C116.936 29.6472 116.838 32.546 116.936 35.4369C117.017 37.8112 118.98 39.4283 121.444 39.3924C123.542 39.3612 125.504 37.5895 125.541 35.5072C125.603 32.1215 125.539 28.7341 125.539 25.3468Z" fill="#F200AE"/>
<path d="M121.243 10.7368C122.216 10.722 123.145 10.3247 123.83 9.63C124.514 8.93533 124.9 7.99873 124.905 7.02132C124.91 6.04391 124.533 5.10361 123.855 4.40236C123.177 3.7011 122.252 3.29479 121.279 3.27067C120.784 3.25842 120.293 3.34531 119.832 3.52625C119.372 3.7072 118.952 3.97858 118.597 4.3245C118.242 4.67042 117.96 5.08393 117.766 5.54083C117.572 5.99772 117.471 6.48884 117.469 6.9854C117.466 7.48198 117.563 7.97403 117.752 8.43279C117.941 8.89153 118.22 9.30775 118.571 9.65708C118.923 10.0064 119.34 10.2818 119.799 10.4672C120.258 10.6526 120.749 10.7442 121.243 10.7368Z" fill="#F200AE"/>
<path d="M78.0634 10.3943C79.6489 11.0811 81.1582 10.797 82.2277 9.61378C82.7907 9.09914 83.1743 8.41657 83.3221 7.66656C83.4698 6.91655 83.3739 6.13871 83.0484 5.44757C82.7226 4.74138 82.1834 4.15622 81.5076 3.77514C80.8318 3.39407 80.0537 3.23644 79.2836 3.32465C79.0302 3.36367 78.7707 3.37772 78.5235 3.44173C77.137 3.80699 76.024 5.22435 75.9043 6.7619C75.7877 8.24013 76.7313 9.81671 78.0634 10.3943Z" fill="#F200AE"/>
<path d="M84.0366 16.3477C84.0476 15.8816 83.9836 15.4166 83.847 14.971C83.1537 12.8496 81.1733 11.6351 78.9427 11.9661C76.8846 12.2782 75.3676 14.0827 75.3676 16.2852C75.3593 21.8797 75.3593 27.4748 75.3676 33.0703C75.3676 33.4574 75.3972 33.8509 75.4143 34.2302C75.063 37.1632 76.9904 39.4219 79.7666 39.3345C82.1216 39.4298 84.0319 37.502 84.0335 34.9981C84.0356 28.7792 84.0366 22.5624 84.0366 16.3477Z" fill="#F200AE"/>
<path d="M14.8231 14.2042C17.1553 14.2042 19.4351 14.8987 21.3743 16.1999C23.3134 17.5011 24.8248 19.3504 25.7173 21.5142C26.6098 23.678 26.8433 26.0588 26.3883 28.3559C25.9333 30.6529 24.8103 32.7629 23.1612 34.4189C21.5121 36.075 19.4109 37.2028 17.1236 37.6597C14.8362 38.1166 12.4652 37.8821 10.3106 36.9859C8.15593 36.0896 6.3143 34.5718 5.0186 32.6245C3.7229 30.6772 3.03132 28.3878 3.03132 26.0457C3.03173 22.9054 4.27421 19.8937 6.48551 17.673C8.69682 15.4524 11.6958 14.2046 14.8231 14.2042ZM14.8231 12.3311C12.122 12.3311 9.48155 13.1355 7.23565 14.6425C4.98975 16.1494 3.23928 18.2914 2.2056 20.7973C1.17193 23.3034 0.901475 26.0609 1.42844 28.7213C1.9554 31.3818 3.25611 33.8254 5.16609 35.7435C7.07608 37.6615 9.50954 38.9677 12.1587 39.4969C14.8079 40.0261 17.5539 39.7545 20.0494 38.7164C22.545 37.6784 24.6779 35.9205 26.1786 33.6652C27.6792 31.4098 28.4802 28.7583 28.4802 26.0457C28.4745 22.4101 27.0337 18.9251 24.4738 16.3545C21.9138 13.7837 18.4434 12.3369 14.8231 12.3311Z" fill="#EBEBF6"/>
<path fill-rule="evenodd" clip-rule="evenodd" d="M22.564 17.1377C21.4464 18.2647 19.4552 20.7279 18.664 24.6303C17.7313 29.2335 13.25 35.4837 11.7422 37.4926C14.3161 38.191 17.0498 37.9926 19.497 36.9297C21.9442 35.8668 23.9602 34.0022 25.2161 31.6403C26.472 29.2785 26.8935 26.5589 26.4119 23.9254C25.9302 21.2919 24.5737 18.9003 22.564 17.1408V17.1377Z" fill="#BC0186"/>
<path fill-rule="evenodd" clip-rule="evenodd" d="M24.4345 19.2148C23.7879 21.4424 21.2961 28.3668 15.021 29.5938C9.35204 30.7083 6.86652 32.8936 5.98828 33.9051C7.98759 36.1727 10.7763 37.5845 13.7806 37.8501C16.785 38.1157 19.7764 37.2149 22.1395 35.333C24.5026 33.4511 26.0575 30.7312 26.4844 27.733C26.9113 24.7348 26.1777 21.6865 24.4345 19.2148Z" fill="#F200AE"/>
<path d="M16.9705 0.853516H12.6881C12.593 0.853483 12.499 0.873121 12.4118 0.911206C12.3247 0.949291 12.2463 1.00501 12.1815 1.07487C12.1167 1.14474 12.067 1.22726 12.0354 1.31728C12.0038 1.4073 11.9911 1.50289 11.9979 1.5981L12.2684 5.39905H17.3979L17.6622 1.5981C17.6688 1.50281 17.6558 1.40719 17.624 1.31716C17.5923 1.22714 17.5424 1.14464 17.4775 1.0748C17.4126 1.00496 17.3341 0.949272 17.2469 0.911203C17.1597 0.873135 17.0656 0.853499 16.9705 0.853516Z" fill="#F200AE"/>
<path fill-rule="evenodd" clip-rule="evenodd" d="M10.4812 5.40723H19.172C19.3279 5.40723 19.4824 5.43808 19.6264 5.49801C19.7705 5.55794 19.9014 5.64579 20.0117 5.75653C20.122 5.86728 20.2095 5.99874 20.2692 6.14343C20.3288 6.28812 20.3596 6.4432 20.3596 6.59981V7.98594C20.3593 8.26263 20.2633 8.53064 20.0881 8.74417C19.9129 8.9577 19.6693 9.10351 19.3989 9.15668C19.3181 9.17696 18.2098 9.46887 18.2098 10.4648C18.2098 11.3451 19.0871 11.7578 19.3492 11.8614C21.5766 12.5782 23.625 13.8207 25.3096 15.5124C28.09 18.3045 29.6521 22.0915 29.6521 26.0403C29.6521 28.9849 28.7825 31.8634 27.1534 34.3118C25.5243 36.7602 23.2088 38.6685 20.4997 39.7954C17.7906 40.9223 14.8096 41.2172 11.9336 40.6427C9.05765 40.0682 6.41591 38.6502 4.34245 36.568C2.26899 34.4858 0.85695 31.8329 0.284885 28.9448C-0.287181 26.0567 0.00642407 23.0631 1.12857 20.3426C2.25072 17.6221 4.15101 15.2968 6.58913 13.6609C7.73678 12.8909 8.97934 12.2897 10.279 11.8693C10.512 11.7794 11.4387 11.3654 11.4387 10.4648C11.4387 9.43452 10.2496 9.15511 10.2418 9.15511C9.97386 9.09951 9.73312 8.9529 9.56015 8.73996C9.38717 8.52702 9.29251 8.26075 9.2921 7.98594V6.59981C9.2921 6.44307 9.32287 6.28786 9.38264 6.14307C9.44242 5.99828 9.53004 5.86673 9.64048 5.75598C9.75092 5.64521 9.88202 5.55741 10.0263 5.49757C10.1705 5.43772 10.3251 5.40703 10.4812 5.40723ZM7.54513 36.9828C9.70028 38.4289 12.2341 39.2007 14.826 39.2007C18.3018 39.2007 21.6352 37.8142 24.0929 35.3461C26.5506 32.878 27.9313 29.5306 27.9313 26.0403C27.9313 23.4373 27.1627 20.8929 25.7227 18.7286C24.2827 16.5644 22.2359 14.8776 19.8412 13.8815C17.4465 12.8854 14.8115 12.6248 12.2693 13.1326C9.72714 13.6404 7.392 14.8938 5.5592 16.7343C3.72639 18.5749 2.47823 20.9198 1.97256 23.4728C1.46689 26.0256 1.72642 28.6718 2.71833 31.0766C3.71024 33.4813 5.38997 35.5367 7.54513 36.9828Z" fill="#A8AFC3"/>
</svg>
