<svg width="15" height="16" viewBox="0 0 15 16" fill="none" xmlns="http://www.w3.org/2000/svg">
<g id="Group 1000001351">
<circle id="Ellipse 1576" cx="7.5" cy="8" r="7.5" fill="#F3A511"/>
<g id="Mask group">
<mask id="mask0_1_81" style="mask-type:luminance" maskUnits="userSpaceOnUse" x="4" y="4" width="7" height="8">
<g id="Group">
<path id="Vector" d="M7.5 11.3868C7.5 11.5676 7.72085 11.6556 7.84519 11.5243L10.8697 8.33178C10.9428 8.25464 10.9428 8.13382 10.8697 8.05668L7.84519 4.86415C7.72085 4.7329 7.5 4.8209 7.5 5.0017L7.5 6.63312C7.5 6.74357 7.41046 6.83312 7.3 6.83312L4.2 6.83312C4.08954 6.83312 4 6.92266 4 7.03312L4 9.35534C4 9.4658 4.08954 9.55534 4.2 9.55534L7.3 9.55534C7.41046 9.55534 7.5 9.64488 7.5 9.75534L7.5 11.3868Z" fill="white"/>
</g>
</mask>
<g mask="url(#mask0_1_81)">
<path id="Vector_2" d="M3.03398 12.8604C2.92353 12.8604 2.83398 12.7708 2.83398 12.6604L2.83398 3.72702C2.83398 3.61656 2.92353 3.52702 3.03398 3.52702L11.9673 3.52702C12.0778 3.52702 12.1673 3.61656 12.1673 3.72702L12.1673 12.6604C12.1673 12.7708 12.0778 12.8604 11.9673 12.8604L3.03398 12.8604Z" fill="black"/>
</g>
</g>
</g>
</svg>
