<svg width="68" height="49" viewBox="0 0 68 49" fill="none" xmlns="http://www.w3.org/2000/svg">
<path d="M66.52 8.32008C65.74 5.39008 64.03 2.91008 61.1 2.13008C55.79 0.710078 34 0.580078 34 0.580078C34 0.580078 12.21 0.710078 6.9 2.13008C3.97 2.91008 2.27 5.39008 1.48 8.32008C0.0600001 13.6301 0 24.5801 0 24.5801C0 24.5801 0.0600001 35.5301 1.48 40.8401C2.26 43.7701 3.97 46.2501 6.9 47.0301C12.21 48.4501 34 48.5801 34 48.5801C34 48.5801 55.79 48.4501 61.1 47.0301C64.03 46.2501 65.74 43.7701 66.52 40.8401C67.94 35.5301 68 24.5801 68 24.5801C68 24.5801 67.94 13.6301 66.52 8.32008Z" fill="#FF0000"/>
<path d="M43 24.5801L25 14.5801V34.5801" fill="white"/>
</svg>
