<svg width="133" height="52" viewBox="0 0 133 52" fill="none" xmlns="http://www.w3.org/2000/svg">
<path d="M6.6551 0.351562H19.3427C20.386 0.351562 21.3176 0.556885 22.1373 0.967529C22.957 1.34084 23.6464 1.86348 24.2052 2.53544C24.8015 3.17006 25.2486 3.89803 25.5467 4.71931C25.8447 5.50327 25.994 6.30589 25.994 7.12718V51.4205H17.6659V37.1975H8.27598V51.4205H0.00390625V7.40717C0.00390625 6.62321 0.152953 5.82059 0.451046 4.9993C0.749138 4.14067 1.17765 3.3754 1.73657 2.70342C2.33275 2.03147 3.04073 1.4715 3.86049 1.02353C4.68024 0.57555 5.61179 0.351562 6.6551 0.351562ZM8.27598 32.1017H17.6659V7.12718C17.6659 6.60455 17.4982 6.15657 17.1629 5.78324C16.8275 5.37261 16.4549 5.16729 16.045 5.16729H9.95275C9.54288 5.16729 9.15162 5.37261 8.77901 5.78324C8.44366 6.15657 8.27598 6.60455 8.27598 7.12718V32.1017Z" fill="#F8F8F8"/>
<path d="M48.1083 0.351562C49.1145 0.351562 50.0086 0.556885 50.7912 0.967529C51.6109 1.37817 52.319 1.91947 52.9151 2.59144C53.5114 3.22607 53.9585 3.95402 54.2565 4.7753C54.5918 5.55926 54.7596 6.34322 54.7596 7.12718V30.1418C54.7596 30.9258 54.6106 31.747 54.3125 32.6057C54.0143 33.4269 53.5672 34.1922 52.9711 34.9016C52.412 35.5735 51.7226 36.1336 50.903 36.5815C50.0831 36.9921 49.1517 37.1975 48.1083 37.1975H47.773L55.2627 51.4205H46.7669L39.3332 37.1975H37.0416V51.4205H28.7695V0.351562H48.1083ZM37.0416 32.1017H44.8108C45.2951 32.1017 45.6864 31.9151 45.9845 31.5418C46.2825 31.1684 46.4316 30.7019 46.4316 30.1418V7.12718C46.4316 6.60455 46.264 6.15657 45.9285 5.78324C45.5932 5.37261 45.2206 5.16729 44.8108 5.16729H37.0416V32.1017Z" fill="#F8F8F8"/>
<path d="M58.0801 0.351562H77.1393C78.1827 0.351562 79.1141 0.556885 79.934 0.967529C80.7537 1.34084 81.443 1.86348 82.0021 2.53544C82.5982 3.17006 83.0453 3.89803 83.3433 4.71931C83.6416 5.50327 83.7906 6.30589 83.7906 7.12718V30.1418C83.7906 30.9632 83.6416 31.8031 83.3433 32.6616C83.0825 33.483 82.6727 34.2295 82.1139 34.9016C81.5548 35.5735 80.8469 36.1336 79.9898 36.5815C79.1701 36.9921 78.22 37.1975 77.1393 37.1975H66.0726V51.4205H58.0801V0.351562ZM66.0726 32.1017H74.1211C74.5309 32.1017 74.9037 31.9151 75.239 31.5418C75.5743 31.131 75.7421 30.6646 75.7421 30.1418V7.12718C75.7421 6.71653 75.5558 6.28723 75.183 5.83925C74.8105 5.39127 74.4564 5.16729 74.1211 5.16729H66.0726V32.1017Z" fill="#F8F8F8"/>
<path d="M93.2216 0.351562H105.63C106.673 0.351562 107.605 0.556885 108.424 0.967529C109.244 1.34084 109.933 1.86348 110.492 2.53544C111.089 3.17006 111.536 3.89803 111.834 4.71931C112.132 5.50327 112.281 6.30589 112.281 7.12718V10.375H104.232V7.12718C104.232 6.71653 104.046 6.28723 103.673 5.83925C103.301 5.39127 102.947 5.16729 102.612 5.16729H96.2398C95.9045 5.16729 95.5317 5.39127 95.1219 5.83925C94.7493 6.28723 94.5631 6.71653 94.5631 7.12718V44.6451C94.5631 45.1676 94.7121 45.5782 95.0101 45.8771C95.3454 46.1757 95.7555 46.325 96.2398 46.325H102.612C103.096 46.325 103.487 46.1757 103.785 45.8771C104.083 45.5782 104.232 45.1676 104.232 44.6451V41.9571H112.281V44.6451C112.281 45.4662 112.132 46.2876 111.834 47.1088C111.536 47.8929 111.089 48.6208 110.492 49.2927C109.933 49.9275 109.244 50.4501 108.424 50.8606C107.605 51.2339 106.673 51.4205 105.63 51.4205H93.2216C92.1782 51.4205 91.2468 51.2339 90.4269 50.8606C89.6073 50.4501 88.8992 49.9275 88.3031 49.2927C87.7442 48.6208 87.3157 47.8929 87.0176 47.1088C86.7193 46.2876 86.5703 45.4662 86.5703 44.6451V7.12718C86.5703 6.30589 86.7193 5.50327 87.0176 4.71931C87.3157 3.89803 87.7442 3.17006 88.3031 2.53544C88.8992 1.86348 89.6073 1.34084 90.4269 0.967529C91.2468 0.556885 92.1782 0.351562 93.2216 0.351562Z" fill="#F8F8F8"/>
<path d="M132.999 22.473L106.797 2.07227L84.8678 30.3429L111.07 50.7436L132.999 22.473Z" fill="black"/>
<path d="M113.281 21.1221L116.653 22.7878C116.809 22.868 116.987 22.8676 117.148 22.7841C117.308 22.7005 117.416 22.5618 117.449 22.3864L117.595 21.6518C117.639 21.4284 117.797 21.2596 118.023 21.2062C120.159 20.7004 121.254 17.6047 121.251 15.4752C121.25 12.6032 119.263 11.0564 116.485 11.7642C114.424 12.2871 111.701 14.1148 111.739 16.3135C111.742 16.5385 111.622 16.7371 111.413 16.8387L110.739 17.1617C110.578 17.2376 110.47 17.3763 110.429 17.5528C110.388 17.7292 110.435 17.8979 110.548 18.0344L112.991 20.8964C113.018 20.9239 113.04 20.9482 113.07 20.9714L113.193 21.0677C113.219 21.0876 113.244 21.1075 113.281 21.1221ZM118.788 16.4287C119.147 15.8252 119.758 15.5846 120.154 15.8933C120.551 16.202 120.58 16.9405 120.221 17.544C119.862 18.1476 119.252 18.3882 118.855 18.0794C118.463 17.7741 118.43 17.0323 118.788 16.4287ZM116.158 14.3807C115.663 14.878 114.941 15.0323 114.545 14.7236C114.148 14.4149 114.23 13.7627 114.725 13.2654C115.221 12.7681 115.942 12.6138 116.339 12.9225C116.735 13.2312 116.653 13.8834 116.158 14.3807Z" fill="#20E764"/>
<path d="M95.7101 34.699L94.9545 34.8266C94.6156 35.0078 94.1171 36.1002 93.0457 36.1766C92.6345 36.2042 92.2098 36.0818 91.8702 35.7968L90.3424 34.5309C89.6644 33.9681 89.537 32.9863 90.0432 32.2542L92.4848 28.7189C92.928 28.0769 93.7291 27.8111 94.4569 28.0717L95.6369 28.49C95.2747 30.5436 95.2819 32.6763 95.7101 34.699ZM99.9898 19.8809L99.9101 19.2696C99.8895 19.1285 99.8051 19.0349 99.6744 19.0095L98.0538 18.6654C97.0253 18.4486 96.4588 17.3541 96.865 16.3634L98.0958 13.4012C98.3979 12.6769 99.1259 12.2497 99.8965 12.3493L104.655 12.9676C105.28 13.0515 105.793 13.4575 106.007 14.0548L106.996 16.7993C104.778 16.9078 102.67 17.6781 100.815 19.1609C100.524 19.3861 100.254 19.628 99.9898 19.8809ZM111.06 17.0163L111.485 17.0064L111.494 17.0131L111.06 17.0163ZM117.393 21.5994L117.402 21.6061L117.498 22.0286L117.393 21.5994ZM118.711 25.9208L121.61 26.2036C122.241 26.2635 122.76 26.6608 122.996 27.2476L124.769 31.7145C125.055 32.4381 124.822 33.2503 124.196 33.7224L121.627 35.65C120.773 36.292 119.575 36.0124 119.107 35.0641C118.981 34.8128 118.415 33.5315 118.246 33.4414C118.197 33.4168 118.137 33.4052 118.064 33.4111L117.453 33.4846C117.633 33.1654 117.796 32.8406 117.95 32.5089C118.931 30.3458 119.159 28.104 118.711 25.9208ZM110.202 39.8441L110.894 40.8831C111.322 41.5219 111.266 42.3689 110.751 42.9543L107.934 46.1976C107.351 46.8697 106.37 46.9887 105.658 46.4693L104.057 45.2986C103.336 44.7727 103.162 43.7816 103.645 43.0177L104.237 42.0606L104.174 41.2955C106.247 41.2138 108.312 40.6942 110.202 39.8441Z" fill="#20E764"/>
<path d="M99.2985 32.7696L99.1228 30.9157C99.1027 30.7124 98.9914 30.5563 98.811 30.4714L97.5978 29.902C97.426 29.824 97.2411 29.833 97.078 29.9285C96.9118 30.0283 96.8179 30.1846 96.8057 30.3767C96.7441 31.2673 96.7606 32.1629 96.8599 33.0397C96.8917 33.3424 97.1611 33.5593 97.4628 33.5229L98.8009 33.3761C98.9542 33.3634 99.0775 33.2926 99.1793 33.1702C99.271 33.061 99.3091 32.9236 99.2985 32.7696ZM109.957 20.5891L107.849 21.0679C107.592 21.1253 107.417 21.343 107.409 21.6083L107.336 24.3038C107.332 24.4676 107.387 24.6079 107.505 24.7205L109.038 26.1993C109.065 26.2269 109.094 26.2502 109.128 26.269L110.937 27.3926C111.075 27.4792 111.224 27.4983 111.382 27.4539L113.971 26.7169C114.222 26.6483 114.388 26.4165 114.38 26.1532L114.323 23.9883C114.316 23.8025 114.232 23.6464 114.081 23.5424L112.155 22.2516C112.134 22.2351 112.117 22.2218 112.095 22.2052L110.445 20.7186C110.31 20.5927 110.134 20.5461 109.957 20.5891ZM115.706 24.0294L115.773 26.5004C115.777 26.6707 115.849 26.8167 115.981 26.9196L116.562 27.3786C116.745 27.5213 116.979 27.5369 117.186 27.42C117.389 27.2996 117.495 27.0834 117.46 26.8549C117.349 26.0457 117.128 25.22 116.79 24.3866C116.704 24.1805 116.522 24.0529 116.301 24.0475L115.706 24.0294ZM114.669 27.9491L112.167 28.663C111.915 28.7316 111.749 28.9635 111.757 29.2268L111.829 31.6113C111.832 31.7742 111.903 31.9124 112.024 32.0208L114.615 34.1984C114.736 34.2988 114.876 34.3386 115.033 34.3217C115.189 34.3047 115.319 34.2251 115.417 34.0995C116.304 32.9202 116.98 31.5905 117.31 30.1513C117.362 29.9346 117.291 29.7263 117.116 29.5903L115.164 28.0428C115.016 27.9342 114.845 27.8984 114.669 27.9491ZM110.101 28.5144C107.972 27.2119 108.411 27.5537 106.622 25.8057C106.486 25.6722 106.306 25.6224 106.117 25.6629L103.94 26.1509C103.676 26.2095 103.498 26.4391 103.499 26.711L103.524 29.094C103.525 29.2612 103.592 29.4039 103.72 29.5111L105.403 30.939C105.415 30.949 105.424 30.9555 105.437 30.9655L107.233 32.2461C107.369 32.3447 107.519 32.3714 107.685 32.3339L109.996 31.7697C110.256 31.7079 110.433 31.4706 110.429 31.203L110.359 28.9657C110.356 28.7757 110.263 28.6133 110.101 28.5144ZM105.968 23.8367L106.04 21.2308C106.046 21.0474 105.973 20.8861 105.824 20.7776L103.845 19.2647C103.675 19.1319 103.452 19.1111 103.255 19.215C101.949 19.8941 100.825 20.8754 99.9037 22.0279C99.8061 22.1536 99.7648 22.2952 99.7838 22.4559C99.8059 22.6123 99.879 22.7386 100.006 22.8305L102.752 24.8087C102.883 24.904 103.034 24.9307 103.196 24.8974L105.521 24.3783C105.78 24.3165 105.956 24.0986 105.968 23.8367ZM107.169 19.8019L109.576 19.2562L109.416 18.6868C109.355 18.4732 109.187 18.3208 108.962 18.2923C108.069 18.1664 107.215 18.1555 106.41 18.2511C106.176 18.2782 105.994 18.4347 105.931 18.6569C105.864 18.8833 105.942 19.1102 106.125 19.2529L106.712 19.7033C106.848 19.8019 107.007 19.8352 107.169 19.8019ZM110.694 33.0218L108.518 33.5523C108.239 33.6204 108.061 33.8774 108.086 34.1615L108.257 35.81C108.271 35.9249 108.309 36.0169 108.377 36.1049L109.911 37.9803C110.078 38.1873 110.36 38.2393 110.593 38.1151C111.668 37.5482 112.693 36.8444 113.612 36.0303C113.738 35.9203 113.806 35.7713 113.805 35.6043C113.805 35.4371 113.738 35.2946 113.612 35.1829L111.179 33.1358C111.038 33.0187 110.871 32.9788 110.694 33.0218ZM106.431 33.3869L104.562 32.0498C104.549 32.0398 104.54 32.0332 104.528 32.0233L102.815 30.5721C102.691 30.468 102.542 30.4219 102.379 30.4475L101.027 30.6468C100.734 30.6895 100.518 30.9594 100.546 31.2589L100.758 33.4539C100.769 33.5806 100.815 33.6794 100.9 33.7731L102.093 35.0913C102.137 35.1397 102.184 35.1761 102.242 35.2073L103.812 36.04C103.919 36.0959 104.03 36.1199 104.156 36.0993L106.331 35.7631C106.627 35.7161 106.839 35.443 106.809 35.1478L106.667 33.7867C106.64 33.6195 106.566 33.4853 106.431 33.3869ZM102.136 28.5832L102.111 26.3398C102.109 26.1575 102.03 26.0048 101.881 25.8964L99.3003 24.0398C99.1648 23.9414 99.0104 23.9113 98.8453 23.9566C98.6834 23.9975 98.5595 24.0957 98.4809 24.25C97.9205 25.3428 97.4926 26.5113 97.2101 27.6955C97.1474 27.9527 97.2713 28.216 97.5129 28.3276L99.7056 29.3535C99.8077 29.3983 99.9104 29.4157 100.02 29.3971L101.657 29.156C101.931 29.1119 102.139 28.8703 102.136 28.5832ZM107.007 37.0609L105.17 37.348C105.018 37.3684 104.895 37.4466 104.805 37.5715C104.715 37.6962 104.677 37.8333 104.7 37.9896L104.888 39.3249C104.931 39.6224 105.207 39.8305 105.509 39.7943C106.381 39.6742 107.247 39.4656 108.098 39.1894C108.28 39.1302 108.412 38.996 108.464 38.8141C108.519 38.628 108.483 38.4463 108.361 38.3031L107.515 37.2691C107.387 37.0996 107.208 37.0302 107.007 37.0609ZM102.954 37.1727C100.972 36.1303 101.505 36.5452 100.012 34.8822C99.8917 34.7467 99.7293 34.6827 99.5462 34.7071L97.8676 34.8877C97.6956 34.9067 97.5511 34.996 97.4553 35.137C97.3607 35.2856 97.3372 35.448 97.3876 35.6125C97.764 36.8021 98.3102 37.9226 99.0474 38.9207C99.1116 39.0053 99.184 39.0618 99.2818 39.1032C100.429 39.5724 101.648 39.826 102.891 39.8977C103.063 39.9059 103.219 39.8464 103.335 39.7143C103.455 39.5855 103.506 39.4233 103.478 39.2562L103.238 37.5817C103.213 37.4023 103.115 37.2562 102.954 37.1727Z" fill="#20E764"/>
</svg>
