<svg width="102" height="102" viewBox="0 0 102 102" fill="none" xmlns="http://www.w3.org/2000/svg">
<circle cx="51" cy="51" r="51" fill="#FFB42F"/>
<path d="M61 51C61.0007 51.3134 60.9216 51.6217 60.7703 51.8948C60.6189 52.168 60.4005 52.3967 60.1364 52.5588L43.7636 62.7283C43.4876 62.8999 43.1714 62.9936 42.8478 62.9997C42.5242 63.0058 42.2048 62.924 41.9227 62.7629C41.6433 62.6043 41.4105 62.3729 41.2484 62.0927C41.0862 61.8124 41.0005 61.4934 41 61.1684V40.8316C41.0005 40.5066 41.0862 40.1876 41.2484 39.9073C41.4105 39.6271 41.6433 39.3957 41.9227 39.2371C42.2048 39.076 42.5242 38.9942 42.8478 39.0003C43.1714 39.0064 43.4876 39.1001 43.7636 39.2717L60.1364 49.4412C60.4005 49.6033 60.6189 49.832 60.7703 50.1052C60.9216 50.3783 61.0007 50.6866 61 51Z" fill="black"/>
</svg>
