<svg width="211" height="69" viewBox="0 0 211 69" fill="none" xmlns="http://www.w3.org/2000/svg">
<path d="M35.4344 29.268C36.6184 29.268 37.653 29.5027 38.5384 29.972C39.4237 30.4413 40.1064 31.1027 40.5864 31.956C41.077 32.7987 41.3224 33.7747 41.3224 34.884C41.3224 35.9827 41.077 36.9587 40.5864 37.812C40.1064 38.6653 39.4184 39.3267 38.5224 39.796C37.637 40.2653 36.6077 40.5 35.4344 40.5H31.2264V29.268H35.4344ZM35.2584 38.132C36.293 38.132 37.0984 37.8493 37.6744 37.284C38.2504 36.7187 38.5384 35.9187 38.5384 34.884C38.5384 33.8493 38.2504 33.044 37.6744 32.468C37.0984 31.892 36.293 31.604 35.2584 31.604H33.9624V38.132H35.2584ZM46.9154 40.628C46.0407 40.628 45.2514 40.4413 44.5474 40.068C43.854 39.6947 43.3047 39.1613 42.8994 38.468C42.5047 37.7747 42.3074 36.964 42.3074 36.036C42.3074 35.1187 42.51 34.3133 42.9154 33.62C43.3207 32.916 43.8754 32.3773 44.5794 32.004C45.2834 31.6307 46.0727 31.444 46.9474 31.444C47.822 31.444 48.6114 31.6307 49.3154 32.004C50.0194 32.3773 50.574 32.916 50.9794 33.62C51.3847 34.3133 51.5874 35.1187 51.5874 36.036C51.5874 36.9533 51.3794 37.764 50.9634 38.468C50.558 39.1613 49.998 39.6947 49.2834 40.068C48.5794 40.4413 47.79 40.628 46.9154 40.628ZM46.9154 38.26C47.438 38.26 47.8807 38.068 48.2434 37.684C48.6167 37.3 48.8034 36.7507 48.8034 36.036C48.8034 35.3213 48.622 34.772 48.2594 34.388C47.9074 34.004 47.47 33.812 46.9474 33.812C46.414 33.812 45.9714 34.004 45.6194 34.388C45.2674 34.7613 45.0914 35.3107 45.0914 36.036C45.0914 36.7507 45.262 37.3 45.6034 37.684C45.9554 38.068 46.3927 38.26 46.9154 38.26ZM65.8549 31.572L63.4389 40.5H60.4149L59.0069 34.708L57.5509 40.5H54.5429L52.1109 31.572H54.8469L56.1109 37.956L57.6149 31.572H60.5109L62.0309 37.924L63.2789 31.572H65.8549ZM72.3383 31.476C73.3836 31.476 74.2156 31.8173 74.8343 32.5C75.4636 33.172 75.7783 34.1 75.7783 35.284V40.5H73.0583V35.652C73.0583 35.0547 72.9036 34.5907 72.5943 34.26C72.2849 33.9293 71.8689 33.764 71.3463 33.764C70.8236 33.764 70.4076 33.9293 70.0983 34.26C69.7889 34.5907 69.6343 35.0547 69.6343 35.652V40.5H66.8983V31.572H69.6343V32.756C69.9116 32.3613 70.2849 32.052 70.7543 31.828C71.2236 31.5933 71.7516 31.476 72.3383 31.476ZM80.4155 28.66V40.5H77.6795V28.66H80.4155ZM86.4623 40.628C85.5876 40.628 84.7983 40.4413 84.0943 40.068C83.4009 39.6947 82.8516 39.1613 82.4463 38.468C82.0516 37.7747 81.8543 36.964 81.8543 36.036C81.8543 35.1187 82.0569 34.3133 82.4622 33.62C82.8676 32.916 83.4223 32.3773 84.1263 32.004C84.8303 31.6307 85.6196 31.444 86.4943 31.444C87.3689 31.444 88.1583 31.6307 88.8623 32.004C89.5663 32.3773 90.1209 32.916 90.5263 33.62C90.9316 34.3133 91.1343 35.1187 91.1343 36.036C91.1343 36.9533 90.9263 37.764 90.5103 38.468C90.1049 39.1613 89.5449 39.6947 88.8303 40.068C88.1263 40.4413 87.3369 40.628 86.4623 40.628ZM86.4623 38.26C86.9849 38.26 87.4276 38.068 87.7903 37.684C88.1636 37.3 88.3503 36.7507 88.3503 36.036C88.3503 35.3213 88.1689 34.772 87.8063 34.388C87.4543 34.004 87.0169 33.812 86.4943 33.812C85.9609 33.812 85.5183 34.004 85.1663 34.388C84.8143 34.7613 84.6383 35.3107 84.6383 36.036C84.6383 36.7507 84.8089 37.3 85.1503 37.684C85.5023 38.068 85.9396 38.26 86.4623 38.26ZM92.0418 36.02C92.0418 35.1027 92.2124 34.2973 92.5538 33.604C92.9058 32.9107 93.3804 32.3773 93.9778 32.004C94.5751 31.6307 95.2418 31.444 95.9778 31.444C96.6071 31.444 97.1564 31.572 97.6258 31.828C98.1058 32.084 98.4738 32.42 98.7298 32.836V31.572H101.466V40.5H98.7298V39.236C98.4631 39.652 98.0898 39.988 97.6098 40.244C97.1404 40.5 96.5911 40.628 95.9618 40.628C95.2364 40.628 94.5751 40.4413 93.9778 40.068C93.3804 39.684 92.9058 39.1453 92.5538 38.452C92.2124 37.748 92.0418 36.9373 92.0418 36.02ZM98.7298 36.036C98.7298 35.3533 98.5378 34.8147 98.1538 34.42C97.7804 34.0253 97.3218 33.828 96.7778 33.828C96.2338 33.828 95.7698 34.0253 95.3858 34.42C95.0124 34.804 94.8258 35.3373 94.8258 36.02C94.8258 36.7027 95.0124 37.2467 95.3858 37.652C95.7698 38.0467 96.2338 38.244 96.7778 38.244C97.3218 38.244 97.7804 38.0467 98.1538 37.652C98.5378 37.2573 98.7298 36.7187 98.7298 36.036ZM102.901 36.02C102.901 35.1027 103.072 34.2973 103.413 33.604C103.765 32.9107 104.24 32.3773 104.837 32.004C105.434 31.6307 106.101 31.444 106.837 31.444C107.424 31.444 107.957 31.5667 108.437 31.812C108.928 32.0573 109.312 32.388 109.589 32.804V28.66H112.325V40.5H109.589V39.22C109.333 39.6467 108.965 39.988 108.485 40.244C108.016 40.5 107.466 40.628 106.837 40.628C106.101 40.628 105.434 40.4413 104.837 40.068C104.24 39.684 103.765 39.1453 103.413 38.452C103.072 37.748 102.901 36.9373 102.901 36.02ZM109.589 36.036C109.589 35.3533 109.397 34.8147 109.013 34.42C108.64 34.0253 108.181 33.828 107.637 33.828C107.093 33.828 106.629 34.0253 106.245 34.42C105.872 34.804 105.685 35.3373 105.685 36.02C105.685 36.7027 105.872 37.2467 106.245 37.652C106.629 38.0467 107.093 38.244 107.637 38.244C108.181 38.244 108.64 38.0467 109.013 37.652C109.397 37.2573 109.589 36.7187 109.589 36.036ZM121.903 29.268C123.087 29.268 124.122 29.5027 125.007 29.972C125.892 30.4413 126.575 31.1027 127.055 31.956C127.546 32.7987 127.791 33.7747 127.791 34.884C127.791 35.9827 127.546 36.9587 127.055 37.812C126.575 38.6653 125.887 39.3267 124.991 39.796C124.106 40.2653 123.076 40.5 121.903 40.5H117.695V29.268H121.903ZM121.727 38.132C122.762 38.132 123.567 37.8493 124.143 37.284C124.719 36.7187 125.007 35.9187 125.007 34.884C125.007 33.8493 124.719 33.044 124.143 32.468C123.567 31.892 122.762 31.604 121.727 31.604H120.431V38.132H121.727ZM130.696 30.644C130.216 30.644 129.821 30.5053 129.512 30.228C129.213 29.94 129.064 29.588 129.064 29.172C129.064 28.7453 129.213 28.3933 129.512 28.116C129.821 27.828 130.216 27.684 130.696 27.684C131.165 27.684 131.549 27.828 131.848 28.116C132.157 28.3933 132.312 28.7453 132.312 29.172C132.312 29.588 132.157 29.94 131.848 30.228C131.549 30.5053 131.165 30.644 130.696 30.644ZM132.056 31.572V40.5H129.32V31.572H132.056ZM136.775 33.06C137.095 32.5693 137.495 32.1853 137.975 31.908C138.455 31.62 138.988 31.476 139.575 31.476V34.372H138.823C138.14 34.372 137.628 34.5213 137.287 34.82C136.946 35.108 136.775 35.62 136.775 36.356V40.5H134.039V31.572H136.775V33.06ZM149.299 35.892C149.299 36.148 149.283 36.4147 149.251 36.692H143.059C143.101 37.2467 143.277 37.6733 143.587 37.972C143.907 38.26 144.296 38.404 144.755 38.404C145.437 38.404 145.912 38.116 146.179 37.54H149.091C148.941 38.1267 148.669 38.6547 148.275 39.124C147.891 39.5933 147.405 39.9613 146.819 40.228C146.232 40.4947 145.576 40.628 144.851 40.628C143.976 40.628 143.197 40.4413 142.515 40.068C141.832 39.6947 141.299 39.1613 140.915 38.468C140.531 37.7747 140.339 36.964 140.339 36.036C140.339 35.108 140.525 34.2973 140.899 33.604C141.283 32.9107 141.816 32.3773 142.499 32.004C143.181 31.6307 143.965 31.444 144.851 31.444C145.715 31.444 146.483 31.6253 147.155 31.988C147.827 32.3507 148.349 32.868 148.723 33.54C149.107 34.212 149.299 34.996 149.299 35.892ZM146.499 35.172C146.499 34.7027 146.339 34.3293 146.019 34.052C145.699 33.7747 145.299 33.636 144.819 33.636C144.36 33.636 143.971 33.7693 143.651 34.036C143.341 34.3027 143.149 34.6813 143.075 35.172H146.499ZM150.198 36.036C150.198 35.108 150.385 34.2973 150.758 33.604C151.142 32.9107 151.67 32.3773 152.342 32.004C153.025 31.6307 153.803 31.444 154.678 31.444C155.798 31.444 156.731 31.7373 157.478 32.324C158.235 32.9107 158.731 33.7373 158.966 34.804H156.054C155.809 34.1213 155.334 33.78 154.63 33.78C154.129 33.78 153.729 33.9773 153.43 34.372C153.131 34.756 152.982 35.3107 152.982 36.036C152.982 36.7613 153.131 37.3213 153.43 37.716C153.729 38.1 154.129 38.292 154.63 38.292C155.334 38.292 155.809 37.9507 156.054 37.268H158.966C158.731 38.3133 158.235 39.1347 157.478 39.732C156.721 40.3293 155.787 40.628 154.678 40.628C153.803 40.628 153.025 40.4413 152.342 40.068C151.67 39.6947 151.142 39.1613 150.758 38.468C150.385 37.7747 150.198 36.964 150.198 36.036ZM165.406 38.18V40.5H164.014C163.022 40.5 162.248 40.26 161.694 39.78C161.139 39.2893 160.862 38.4947 160.862 37.396V33.844H159.774V31.572H160.862V29.396H163.598V31.572H165.39V33.844H163.598V37.428C163.598 37.6947 163.662 37.8867 163.79 38.004C163.918 38.1213 164.131 38.18 164.43 38.18H165.406ZM169.666 28.66V40.5H166.93V28.66H169.666ZM180.768 31.572L175.168 44.74H172.224L174.272 40.196L170.64 31.572H173.696L175.76 37.156L177.808 31.572H180.768Z" fill="white"/>
<rect x="0.5" y="1" width="210" height="67" rx="4.5" stroke="white"/>
</svg>
