<svg width="28" height="20" viewBox="0 0 28 20" fill="none" xmlns="http://www.w3.org/2000/svg">
<path d="M11.3 14.0352L18.3065 9.98516L11.3 5.93516V14.0352ZM26.906 3.46466C27.0815 4.09916 27.203 4.94966 27.284 6.02966C27.3785 7.10966 27.419 8.04116 27.419 8.85116L27.5 9.98516C27.5 12.9417 27.284 15.1152 26.906 16.5057C26.5685 17.7207 25.7855 18.5037 24.5705 18.8412C23.936 19.0167 22.775 19.1382 20.993 19.2192C19.238 19.3137 17.6315 19.3542 16.1465 19.3542L14 19.4352C8.3435 19.4352 4.82 19.2192 3.4295 18.8412C2.2145 18.5037 1.4315 17.7207 1.094 16.5057C0.9185 15.8712 0.797 15.0207 0.716 13.9407C0.6215 12.8607 0.581 11.9292 0.581 11.1192L0.5 9.98516C0.5 7.02866 0.716 4.85516 1.094 3.46466C1.4315 2.24966 2.2145 1.46666 3.4295 1.12916C4.064 0.953656 5.225 0.832156 7.007 0.751156C8.762 0.656656 10.3685 0.616156 11.8535 0.616156L14 0.535156C19.6565 0.535156 23.18 0.751156 24.5705 1.12916C25.7855 1.46666 26.5685 2.24966 26.906 3.46466Z" fill="#FFB42F"/>
</svg>
