<svg width="25" height="25" viewBox="0 0 25 25" fill="none" xmlns="http://www.w3.org/2000/svg">
<path d="M7.91508 0.272461H17.9951C21.8351 0.272461 24.9551 3.39246 24.9551 7.23246V17.3125C24.9551 19.1584 24.2218 20.9287 22.9165 22.2339C21.6113 23.5392 19.841 24.2725 17.9951 24.2725H7.91508C4.07508 24.2725 0.955078 21.1525 0.955078 17.3125V7.23246C0.955078 5.38655 1.68836 3.61625 2.99362 2.311C4.29887 1.00574 6.06917 0.272461 7.91508 0.272461ZM7.67508 2.67246C6.52934 2.67246 5.43053 3.1276 4.62038 3.93776C3.81022 4.74792 3.35508 5.84673 3.35508 6.99246V17.5525C3.35508 19.9405 5.28708 21.8725 7.67508 21.8725H18.2351C19.3808 21.8725 20.4796 21.4173 21.2898 20.6072C22.0999 19.797 22.5551 18.6982 22.5551 17.5525V6.99246C22.5551 4.60446 20.6231 2.67246 18.2351 2.67246H7.67508ZM19.2551 4.47246C19.6529 4.47246 20.0344 4.6305 20.3157 4.9118C20.597 5.19311 20.7551 5.57464 20.7551 5.97246C20.7551 6.37029 20.597 6.75182 20.3157 7.03312C20.0344 7.31443 19.6529 7.47246 19.2551 7.47246C18.8573 7.47246 18.4757 7.31443 18.1944 7.03312C17.9131 6.75182 17.7551 6.37029 17.7551 5.97246C17.7551 5.57464 17.9131 5.19311 18.1944 4.9118C18.4757 4.6305 18.8573 4.47246 19.2551 4.47246ZM12.9551 6.27246C14.5464 6.27246 16.0725 6.9046 17.1977 8.02982C18.3229 9.15504 18.9551 10.6812 18.9551 12.2725C18.9551 13.8638 18.3229 15.3899 17.1977 16.5151C16.0725 17.6403 14.5464 18.2725 12.9551 18.2725C11.3638 18.2725 9.83766 17.6403 8.71244 16.5151C7.58722 15.3899 6.95508 13.8638 6.95508 12.2725C6.95508 10.6812 7.58722 9.15504 8.71244 8.02982C9.83766 6.9046 11.3638 6.27246 12.9551 6.27246ZM12.9551 8.67246C12.0003 8.67246 11.0846 9.05175 10.4095 9.72688C9.73436 10.402 9.35508 11.3177 9.35508 12.2725C9.35508 13.2272 9.73436 14.1429 10.4095 14.818C11.0846 15.4932 12.0003 15.8725 12.9551 15.8725C13.9099 15.8725 14.8255 15.4932 15.5007 14.818C16.1758 14.1429 16.5551 13.2272 16.5551 12.2725C16.5551 11.3177 16.1758 10.402 15.5007 9.72688C14.8255 9.05175 13.9099 8.67246 12.9551 8.67246Z" fill="white"/>
</svg>
