<svg width="25" height="29" viewBox="0 0 25 29" fill="none" xmlns="http://www.w3.org/2000/svg">
<path d="M19.9959 4.8134C18.9496 3.61894 18.373 2.08498 18.3734 0.49707H13.6439V19.4767C13.6074 20.5037 13.1738 21.4766 12.4343 22.1903C11.6949 22.9041 10.7073 23.303 9.67957 23.3032C7.5061 23.3032 5.69998 21.5277 5.69998 19.3236C5.69998 16.6909 8.24079 14.7165 10.8581 15.5277V10.6909C5.57753 9.98687 0.955078 14.0889 0.955078 19.3236C0.955078 24.4205 5.17957 28.0481 9.66426 28.0481C14.4704 28.0481 18.3734 24.145 18.3734 19.3236V9.69605C20.2913 11.0734 22.5939 11.8123 24.9551 11.8083V7.0787C24.9551 7.0787 22.0775 7.21646 19.9959 4.8134Z" fill="white"/>
</svg>
