<svg width="28" height="28" viewBox="0 0 28 28" fill="none" xmlns="http://www.w3.org/2000/svg">
<path d="M15.3878 0.487013C16.3729 0.483232 17.358 0.493133 18.3428 0.516711L18.6047 0.526161C18.9071 0.53696 19.2054 0.550459 19.5658 0.566658C21.0022 0.634155 21.9822 0.860944 22.8421 1.19438C23.7331 1.53726 24.4837 2.00163 25.2342 2.7522C25.9205 3.42663 26.4516 4.24245 26.7907 5.14292C27.1241 6.00283 27.3509 6.98423 27.4184 8.42056C27.4346 8.77964 27.4481 9.07932 27.4589 9.38171L27.467 9.64359C27.491 10.628 27.5013 11.6126 27.498 12.5972L27.4994 13.6043V15.3727C27.5027 16.3578 27.4924 17.3429 27.4683 18.3277L27.4602 18.5896C27.4494 18.892 27.4359 19.1903 27.4198 19.5507C27.3523 20.9871 27.1228 21.9671 26.7907 22.827C26.4527 23.7284 25.9215 24.5449 25.2342 25.2191C24.5592 25.9053 23.743 26.4364 22.8421 26.7756C21.9822 27.109 21.0022 27.3358 19.5658 27.4033C19.2054 27.4195 18.9071 27.433 18.6047 27.4438L18.3428 27.4519C17.358 27.4759 16.3729 27.4862 15.3878 27.4829L14.3808 27.4843H12.6137C11.6286 27.4876 10.6435 27.4773 9.65871 27.4532L9.39682 27.4451C9.07636 27.4335 8.75597 27.42 8.43567 27.4046C6.99935 27.3371 6.0193 27.1076 5.15804 26.7756C4.25721 26.4372 3.44125 25.906 2.76731 25.2191C2.08026 24.5445 1.54863 23.7282 1.20949 22.827C0.87606 21.9671 0.649271 20.9871 0.581775 19.5507C0.56674 19.2304 0.553241 18.91 0.541277 18.5896L0.534527 18.3277C0.509639 17.3429 0.498389 16.3578 0.500779 15.3727V12.5972C0.497011 11.6126 0.506912 10.628 0.530477 9.64359L0.539927 9.38171C0.550726 9.07932 0.564226 8.77964 0.580425 8.42056C0.647921 6.98288 0.87471 6.00418 1.20814 5.14292C1.54748 4.24201 2.08015 3.42641 2.76866 2.75355C3.44214 2.0661 4.25758 1.53398 5.15804 1.19438C6.0193 0.860944 6.998 0.634155 8.43567 0.566658L9.39682 0.526161L9.65871 0.519411C10.6431 0.494536 11.6277 0.483285 12.6124 0.485663L15.3878 0.487013ZM14.0001 7.23667C13.1058 7.22402 12.2178 7.38924 11.3879 7.72273C10.558 8.05622 9.80268 8.55134 9.16578 9.17929C8.52888 9.80725 8.02313 10.5555 7.67794 11.3806C7.33274 12.2057 7.15498 13.0912 7.15498 13.9856C7.15498 14.8801 7.33274 15.7655 7.67794 16.5907C8.02313 17.4158 8.52888 18.164 9.16578 18.792C9.80268 19.42 10.558 19.9151 11.3879 20.2486C12.2178 20.5821 13.1058 20.7473 14.0001 20.7346C15.7902 20.7346 17.507 20.0235 18.7728 18.7577C20.0386 17.4919 20.7497 15.7751 20.7497 13.985C20.7497 12.1949 20.0386 10.4781 18.7728 9.21224C17.507 7.94644 15.7902 7.23667 14.0001 7.23667ZM14.0001 9.93653C14.538 9.92662 15.0726 10.024 15.5725 10.223C16.0724 10.422 16.5276 10.7186 16.9116 11.0955C17.2956 11.4724 17.6006 11.922 17.8088 12.4182C18.0171 12.9143 18.1244 13.4469 18.1245 13.985C18.1246 14.523 18.0174 15.0557 17.8094 15.5519C17.6013 16.048 17.2964 16.4978 16.9126 16.8748C16.5287 17.2519 16.0736 17.5486 15.5737 17.7478C15.0739 17.9469 14.5394 18.0445 14.0014 18.0348C12.9274 18.0348 11.8973 17.6081 11.1378 16.8486C10.3783 16.0891 9.95164 15.059 9.95164 13.985C9.95164 12.9109 10.3783 11.8808 11.1378 11.1213C11.8973 10.3619 12.9274 9.93518 14.0014 9.93518L14.0001 9.93653ZM21.0872 5.21177C20.6517 5.2292 20.2399 5.41446 19.9379 5.72875C19.6359 6.04305 19.4673 6.46199 19.4673 6.89783C19.4673 7.33368 19.6359 7.75262 19.9379 8.06691C20.2399 8.3812 20.6517 8.56647 21.0872 8.5839C21.5348 8.5839 21.964 8.40612 22.2804 8.08967C22.5969 7.77321 22.7746 7.34401 22.7746 6.89648C22.7746 6.44895 22.5969 6.01975 22.2804 5.7033C21.964 5.38685 21.5348 5.20907 21.0872 5.20907V5.21177Z" fill="#FFB42F"/>
</svg>
