<svg width="25" height="21" viewBox="0 0 25 21" fill="none" xmlns="http://www.w3.org/2000/svg">
<path d="M24.9551 10.0035C24.9551 8.47864 23.7138 7.23847 22.1898 7.23847C21.5295 7.23847 20.9118 7.48002 20.4134 7.90253C20.3973 7.91244 20.3807 7.92183 20.3649 7.93201C18.5668 6.78165 16.1825 6.04709 13.545 5.94736L15.1192 1.47084L19.0483 2.41022C19.0515 3.65227 20.0619 4.66215 21.3056 4.66215C22.5501 4.66215 23.5634 3.64958 23.5634 2.40459C23.5634 1.15905 22.5501 0.146484 21.3056 0.146484C20.3595 0.146484 19.5512 0.731451 19.2161 1.55662L14.5611 0.444062L12.6279 5.93718C9.87757 5.98892 7.38516 6.73313 5.52007 7.9221C5.01794 7.48645 4.39142 7.2382 3.71906 7.2382C2.19445 7.2382 0.955078 8.47864 0.955078 10.0033C0.955078 10.9464 1.44166 11.8177 2.2301 12.3249C2.17976 12.6012 2.15348 12.8813 2.15155 13.1621C2.15155 17.1529 6.98866 20.3997 12.9338 20.3997C18.8799 20.3997 23.7173 17.1529 23.7173 13.1621C23.7159 12.8894 23.6915 12.6172 23.6444 12.3485C24.454 11.845 24.9551 10.9611 24.9551 10.0035ZM16.6004 13.5833C16.3773 13.5833 16.1564 13.5394 15.9503 13.454C15.7442 13.3686 15.5569 13.2434 15.3992 13.0856C15.2415 12.9278 15.1165 12.7405 15.0312 12.5344C14.946 12.3282 14.9022 12.1073 14.9023 11.8842C14.9024 11.5481 15.0021 11.2197 15.1888 10.9403C15.3756 10.6609 15.641 10.4432 15.9514 10.3147C16.2619 10.1862 16.6035 10.1526 16.9331 10.2183C17.2626 10.2839 17.5653 10.4458 17.8029 10.6835C18.0404 10.9212 18.2021 11.224 18.2675 11.5536C18.333 11.8832 18.2992 12.2248 18.1705 12.5352C18.0418 12.8456 17.8239 13.1108 17.5444 13.2974C17.265 13.484 16.9364 13.5835 16.6004 13.5833ZM16.9385 16.4803C16.8875 16.5323 15.6696 17.7727 12.9147 17.7727C10.1446 17.7727 9.03738 16.5156 8.991 16.4615C8.91642 16.3739 8.87958 16.2603 8.88852 16.1456C8.89746 16.0309 8.95147 15.9244 9.03872 15.8494C9.12605 15.7754 9.23896 15.7385 9.35317 15.7468C9.46738 15.7552 9.57376 15.808 9.64942 15.8939C9.67409 15.9218 10.5985 16.9049 12.9147 16.9049C15.2696 16.9049 16.3031 15.8867 16.3141 15.8768C16.3948 15.7973 16.5035 15.7524 16.6168 15.7519C16.7301 15.7514 16.8392 15.7952 16.9207 15.8739C17.0022 15.9527 17.0496 16.0602 17.053 16.1735C17.0563 16.2868 17.0152 16.3968 16.9385 16.4803ZM7.81008 11.8842C7.80618 11.6586 7.84726 11.4344 7.93092 11.2249C8.01458 11.0153 8.13915 10.8245 8.29735 10.6637C8.45556 10.5028 8.64423 10.375 8.85234 10.2878C9.06046 10.2007 9.28386 10.1558 9.5095 10.1559C9.73514 10.156 9.95849 10.2011 10.1665 10.2885C10.3746 10.3758 10.5631 10.5038 10.7212 10.6648C10.8792 10.8258 11.0036 11.0167 11.0871 11.2264C11.1705 11.436 11.2114 11.6602 11.2073 11.8858C11.1992 12.331 11.0165 12.7553 10.6987 13.0673C10.3809 13.3792 9.95323 13.5539 9.50789 13.5537C9.06254 13.5535 8.63509 13.3784 8.31755 13.0661C8.00001 12.7539 7.81777 12.3294 7.81008 11.8842Z" fill="white"/>
</svg>
