<svg width="30" height="57" viewBox="0 0 30 57" fill="none" xmlns="http://www.w3.org/2000/svg">
<path d="M3.86806 0.675344L29.3033 26.7683C29.75 27.2266 30 27.8413 30 28.4813C30 29.1213 29.75 29.736 29.3033 30.1943L3.86806 56.297C3.65996 56.5108 3.41116 56.6806 3.13633 56.7966C2.86151 56.9126 2.56623 56.9724 2.26793 56.9724C1.96963 56.9724 1.67435 56.9126 1.39952 56.7966C1.1247 56.6806 0.875896 56.5108 0.667799 56.297C0.239679 55.8587 0 55.2703 0 54.6576C0 54.0449 0.239679 53.4565 0.667799 53.0182L24.5863 28.4813L0.667799 3.94923C0.241148 3.51115 0.00239754 2.9238 0.00239754 2.31229C0.00239754 1.70077 0.241148 1.11343 0.667799 0.675344C0.875896 0.461616 1.1247 0.291743 1.39952 0.175751C1.67435 0.0597595 1.96963 0 2.26793 0C2.56623 0 2.86151 0.0597595 3.13633 0.175751C3.41116 0.291743 3.65996 0.461616 3.86806 0.675344Z" fill="#FEFEFE"/>
</svg>
