<svg width="25" height="21" viewBox="0 0 25 21" fill="none" xmlns="http://www.w3.org/2000/svg">
<path d="M24.9551 2.81594C24.0717 3.21747 23.1195 3.48133 22.1329 3.60753C23.1425 2.9995 23.9226 2.03582 24.2897 0.877125C23.3375 1.45074 22.282 1.85227 21.1692 2.08171C20.2629 1.0951 18.9895 0.521484 17.544 0.521484C14.848 0.521484 12.6453 2.72416 12.6453 5.44309C12.6453 5.83315 12.6912 6.21173 12.7715 6.56737C8.68739 6.36087 5.05068 4.39911 2.63003 1.42779C2.20556 2.15055 1.96464 2.9995 1.96464 3.89433C1.96464 5.6037 2.82506 7.11804 4.15584 7.97846C3.34131 7.97846 2.58414 7.74902 1.91875 7.40485V7.43927C1.91875 9.8255 3.61665 11.8217 5.86521 12.2691C5.14329 12.4667 4.3854 12.4941 3.65106 12.3494C3.96266 13.3274 4.5729 14.1831 5.39602 14.7964C6.21913 15.4096 7.21372 15.7494 8.23997 15.7681C6.50035 17.1453 4.34398 17.8897 2.12525 17.879C1.73519 17.879 1.34514 17.8561 0.955078 17.8102C3.13481 19.2098 5.72754 20.0244 8.50384 20.0244C17.544 20.0244 22.5115 12.5215 22.5115 6.0167C22.5115 5.79873 22.5115 5.59223 22.5 5.37426C23.4637 4.68592 24.2897 3.81403 24.9551 2.81594Z" fill="white"/>
</svg>
