<svg width="28" height="22" viewBox="0 0 28 22" fill="none" xmlns="http://www.w3.org/2000/svg">
<path d="M27.5 2.59591C26.5062 3.04763 25.435 3.34448 24.325 3.48645C25.4608 2.80241 26.3384 1.71828 26.7514 0.414744C25.6802 1.06006 24.4928 1.51178 23.2409 1.76991C22.2213 0.659964 20.7887 0.0146484 19.1625 0.0146484C16.1295 0.0146484 13.6515 2.49266 13.6515 5.55146C13.6515 5.99027 13.7032 6.41618 13.7935 6.81628C9.19885 6.58396 5.10755 4.37698 2.38432 1.03425C1.90679 1.84734 1.63576 2.80241 1.63576 3.8091C1.63576 5.73214 2.60373 7.43578 4.10086 8.40375C3.18451 8.40375 2.3327 8.14563 1.58413 7.75844V7.79715C1.58413 10.4817 3.49426 12.7274 6.0239 13.2307C5.21174 13.453 4.35911 13.4839 3.53298 13.3211C3.88353 14.4213 4.57005 15.384 5.49605 16.0739C6.42206 16.7638 7.54097 17.1461 8.69551 17.1671C6.73843 18.7165 4.31252 19.5539 1.81644 19.5419C1.37763 19.5419 0.938815 19.5161 0.5 19.4645C2.9522 21.039 5.86903 21.9554 8.99235 21.9554C19.1625 21.9554 24.751 13.5147 24.751 6.19677C24.751 5.95155 24.751 5.71924 24.7381 5.47402C25.8222 4.69964 26.7514 3.71876 27.5 2.59591Z" fill="#FFB42F"/>
</svg>
