<svg width="25" height="19" viewBox="0 0 25 19" fill="none" xmlns="http://www.w3.org/2000/svg">
<path d="M21.2621 1.64705C19.7421 0.938456 18.0963 0.424157 16.382 0.127006C16.3669 0.126525 16.352 0.129346 16.3382 0.13527C16.3243 0.141194 16.312 0.150077 16.302 0.161293C16.0963 0.538446 15.8562 1.02989 15.6962 1.40704C13.8779 1.13275 12.0287 1.13275 10.2104 1.40704C10.0504 1.01846 9.81037 0.538446 9.59322 0.161293C9.58179 0.138435 9.5475 0.127006 9.51322 0.127006C7.79888 0.424157 6.16455 0.938456 4.63308 1.64705C4.62165 1.64705 4.61022 1.65848 4.59879 1.6699C1.49014 6.32146 0.632971 10.8473 1.05584 15.3274C1.05584 15.3503 1.06727 15.3731 1.09013 15.3846C3.14733 16.8932 5.12452 17.8075 7.07886 18.4132C7.11315 18.4246 7.14744 18.4132 7.15886 18.3904C7.61602 17.7618 8.02746 17.0989 8.38176 16.4017C8.40461 16.356 8.38176 16.3103 8.33604 16.2989C7.68459 16.0474 7.06743 15.7503 6.4617 15.4074C6.41599 15.3846 6.41599 15.316 6.45027 15.2817C6.57599 15.1903 6.70171 15.0874 6.82743 14.996C6.85028 14.9731 6.88457 14.9731 6.90743 14.9846C10.839 16.7789 15.0791 16.7789 18.9649 14.9846C18.9878 14.9731 19.022 14.9731 19.0449 14.996C19.1706 15.0988 19.2963 15.1903 19.4221 15.2931C19.4678 15.3274 19.4678 15.396 19.4106 15.4189C18.8163 15.7731 18.1877 16.0589 17.5363 16.3103C17.4906 16.3217 17.4791 16.3789 17.4906 16.4132C17.8563 17.1103 18.2677 17.7732 18.7135 18.4018C18.7478 18.4132 18.782 18.4246 18.8163 18.4132C20.7821 17.8075 22.7593 16.8932 24.8165 15.3846C24.8393 15.3731 24.8508 15.3503 24.8508 15.3274C25.3536 10.1501 24.0165 5.65859 21.3078 1.6699C21.2964 1.65848 21.285 1.64705 21.2621 1.64705ZM8.97606 12.5959C7.79888 12.5959 6.816 11.5102 6.816 10.173C6.816 8.83582 7.77603 7.75007 8.97606 7.75007C10.1875 7.75007 11.1475 8.84724 11.1361 10.173C11.1361 11.5102 10.1761 12.5959 8.97606 12.5959ZM16.942 12.5959C15.7648 12.5959 14.7819 11.5102 14.7819 10.173C14.7819 8.83582 15.742 7.75007 16.942 7.75007C18.1535 7.75007 19.1135 8.84724 19.102 10.173C19.102 11.5102 18.1535 12.5959 16.942 12.5959Z" fill="white"/>
</svg>
