<svg width="42" height="30" viewBox="0 0 42 30" fill="none" xmlns="http://www.w3.org/2000/svg">
<path d="M34.5769 2.75781C38.9597 9.26562 41.1511 16.5703 40.3542 25.0039C40.3542 25.0039 40.3542 25.0703 40.2878 25.0703C37.3659 27.2617 34.0456 28.9219 30.5261 29.9844C30.4597 29.9844 30.3933 29.9844 30.3933 29.9844C29.6628 28.9219 28.9987 27.8594 28.4011 26.7305V26.6641C28.4011 26.5977 28.4011 26.5977 28.4675 26.5312C29.53 26.1328 30.5261 25.668 31.5222 25.0703C31.5886 25.0703 31.5886 25.0703 31.5886 25.0039C31.5886 24.9375 31.5886 24.9375 31.5222 24.8711C31.323 24.7383 31.1237 24.6055 30.9245 24.4062H30.8581H30.7917C24.4831 27.3281 17.5769 27.3281 11.2019 24.4062C11.1355 24.4062 11.1355 24.4062 11.1355 24.4062C11.0691 24.4062 11.0691 24.4062 11.0691 24.4062C10.8698 24.6055 10.6706 24.7383 10.4714 24.8711C10.405 24.9375 10.405 24.9375 10.405 25.0039C10.405 25.0703 10.405 25.0703 10.4714 25.0703C11.4011 25.668 12.4636 26.1328 13.5261 26.5312C13.5261 26.5977 13.5925 26.5977 13.5925 26.6641V26.7305C12.9948 27.8594 12.3308 28.9219 11.6003 29.9844C11.5339 29.9844 11.5339 29.9844 11.4675 29.9844C7.88156 28.9219 4.56125 27.2617 1.70578 25.0703C1.63937 25.0703 1.63937 25.0039 1.63937 25.0039C0.975311 17.6992 2.36984 10.3281 7.41672 2.75781C7.41672 2.75781 7.41672 2.75781 7.48312 2.75781C9.94016 1.62891 12.6628 0.765625 15.3855 0.300781C15.3855 0.300781 15.3855 0.300781 15.4519 0.300781H15.5183C15.9167 0.964844 16.2487 1.69531 16.5144 2.35938C17.9753 2.16016 19.4362 2.02734 20.9636 2.02734C22.4909 2.02734 24.0183 2.16016 25.4792 2.35938C25.7448 1.69531 26.0769 0.964844 26.4753 0.300781L26.5417 0.234375C26.5417 0.234375 26.5417 0.300781 26.6081 0.300781C29.3308 0.765625 32.0534 1.62891 34.5105 2.75781C34.5769 2.75781 34.5769 2.75781 34.5769 2.75781ZM14.5222 20.5547C16.448 20.5547 18.0417 18.7617 18.0417 16.6367C18.0417 14.4453 16.5144 12.7188 14.5222 12.7188C12.5964 12.7188 11.0027 14.4453 11.0027 16.6367C11.0027 18.7617 12.5964 20.5547 14.5222 20.5547ZM27.4714 20.5547C29.4636 20.5547 30.9909 18.7617 30.9909 16.6367C31.0573 14.4453 29.4636 12.7188 27.4714 12.7188C25.5456 12.7188 24.0183 14.4453 24.0183 16.6367C24.0183 18.7617 25.5456 20.5547 27.4714 20.5547Z" fill="white"/>
</svg>
